HIERARCHY
ROOT joint_Root
{
	OFFSET 0.0 0.0 0.0
	CHANNELS 6 Xposition Yposition Zposition Zrotation Xrotation Yrotation 
	JOINT Hips
	{
		OFFSET 4.5925 91.4895 -427.239
		CHANNELS 6 Xposition Yposition Zposition Zrotation Xrotation Yrotation 
		JOINT Spine
		{
			OFFSET 15.7357 0.0 0.0
			CHANNELS 6 Xposition Yposition Zposition Zrotation Xrotation Yrotation 
			JOINT Chest
			{
				OFFSET 8.98455 -0.406207 0.0
				CHANNELS 6 Xposition Yposition Zposition Zrotation Xrotation Yrotation 
				JOINT Neck
				{
					OFFSET 16.3773 0.0 0.0
					CHANNELS 6 Xposition Yposition Zposition Zrotation Xrotation Yrotation 
					JOINT Head
					{
						OFFSET 6.45672 0.0 0.0
						CHANNELS 6 Xposition Yposition Zposition Zrotation Xrotation Yrotation 
						End Site
						{
							OFFSET 0.0 0.0 0.0
						}
					}
				}
				JOINT Shoulder_L
				{
					OFFSET 12.9942 -0.242716 4.98039
					CHANNELS 6 Xposition Yposition Zposition Zrotation Xrotation Yrotation 
					JOINT UpperArm_L
					{
						OFFSET 5.34809 0.0 0.0
						CHANNELS 6 Xposition Yposition Zposition Zrotation Xrotation Yrotation 
						JOINT LowerArm_L
						{
							OFFSET 24.3286 1.87007e-05 0.0
							CHANNELS 6 Xposition Yposition Zposition Zrotation Xrotation Yrotation 
							JOINT Hand_L
							{
								OFFSET 22.2916 0.0 0.0
								CHANNELS 6 Xposition Yposition Zposition Zrotation Xrotation Yrotation 
								End Site
								{
									OFFSET 0.0 0.0 0.0
								}
							}
						}
					}
				}
				JOINT Shoulder_R
				{
					OFFSET 12.9945 -0.242716 -4.98039
					CHANNELS 6 Xposition Yposition Zposition Zrotation Xrotation Yrotation 
					JOINT UpperArm_R
					{
						OFFSET -5.34813 0.0 0.0
						CHANNELS 6 Xposition Yposition Zposition Zrotation Xrotation Yrotation 
						JOINT LowerArm_R
						{
							OFFSET -24.3289 0.000322201 0.0
							CHANNELS 6 Xposition Yposition Zposition Zrotation Xrotation Yrotation 
							JOINT Hand_R
							{
								OFFSET -22.2915 -0.000108084 0.0
								CHANNELS 6 Xposition Yposition Zposition Zrotation Xrotation Yrotation 
								End Site
								{
									OFFSET 0.0 0.0 0.0
								}
							}
						}
					}
				}
			}
		}
		JOINT UpperLeg_L
		{
			OFFSET -2.19248 -6.46944 0.0
			CHANNELS 6 Xposition Yposition Zposition Zrotation Xrotation Yrotation 
			JOINT LowerLeg_L
			{
				OFFSET 39.0811 0.0 -1.23785e-05
				CHANNELS 6 Xposition Yposition Zposition Zrotation Xrotation Yrotation 
				JOINT Foot_L
				{
					OFFSET 40.9854 0.0 -1.26872e-05
					CHANNELS 6 Xposition Yposition Zposition Zrotation Xrotation Yrotation 
					JOINT Toes_L
					{
						OFFSET 11.7543 0.0 0.0
						CHANNELS 6 Xposition Yposition Zposition Zrotation Xrotation Yrotation 
						End Site
						{
							OFFSET 0.0 0.0 0.0
						}
					}
				}
			}
		}
		JOINT UpperLeg_R
		{
			OFFSET -2.19251 6.46944 0.0
			CHANNELS 6 Xposition Yposition Zposition Zrotation Xrotation Yrotation 
			JOINT LowerLeg_R
			{
				OFFSET -39.0811 -0.00228153 -0.0401928
				CHANNELS 6 Xposition Yposition Zposition Zrotation Xrotation Yrotation 
				JOINT Foot_R
				{
					OFFSET -40.9854 0.0 0.0
					CHANNELS 6 Xposition Yposition Zposition Zrotation Xrotation Yrotation 
					JOINT Toes_R
					{
						OFFSET -11.7543 0.0 0.0
						CHANNELS 6 Xposition Yposition Zposition Zrotation Xrotation Yrotation 
						End Site
						{
							OFFSET 0.0 0.0 0.0
						}
					}
				}
			}
		}
	}
}
MOTION
Frames:	4
Frame Time:	0.0333333
0.000000 0.000000 0.000000 0.000000 0.000000 -0.000000 2.380260 90.395100 2.238930 89.224500 -5.757970 12.287600 15.735700 0.000005 -0.000001 92.059100 82.007000 -94.453400 8.984550 -0.406207 -0.000000 8.226270 0.562106 -4.824460 16.377300 -0.000001 -0.000001 27.448400 -1.600130 2.295740 6.456720 -0.000001 -0.000000 13.336500 -3.105570 -12.081800 12.994200 -0.242716 4.980390 -91.248700 4.279040 -73.715200 5.348090 -0.000007 -0.000001 -61.262100 35.343400 -14.251900 24.328600 0.000019 0.000005 7.336880 21.718000 -19.185500 22.291600 -0.000001 0.000005 7.292850 5.240220 1.689670 12.994500 -0.242716 -4.980390 90.664300 -2.250410 -73.549600 -5.348130 -0.000001 -0.000004 -59.268900 -42.827100 -84.623000 -24.328900 0.000322 -0.000009 4.162040 1.594260 -69.084200 -22.291500 -0.000108 -0.000004 16.430900 5.392170 -2.684700 -2.192480 -6.469440 -0.000000 -174.972000 -14.962600 4.082360 39.081100 -0.000007 -0.000012 -0.143125 0.232822 31.581000 40.985400 -0.000006 -0.000013 1.930910 4.325110 -73.175100 11.754300 -0.000000 0.000003 -0.000222 -0.002022 -16.653600 -2.192510 6.469440 -0.000001 170.517000 19.933400 -175.773000 -39.081100 -0.002282 -0.040193 -0.163243 0.277528 30.967900 -40.985400 0.000008 0.000006 2.933000 15.778000 -71.900700 -11.754300 -0.000006 -0.000006 -0.002789 -0.038192 -18.126200
0.000000 0.000000 0.000000 0.000000 0.000000 -0.000000 2.466840 90.385100 2.284050 89.196200 -5.790210 12.227600 15.735700 0.000005 -0.000001 92.159000 82.031500 -94.550900 8.984550 -0.406207 -0.000000 8.176740 0.589054 -4.821370 16.377300 -0.000001 -0.000001 27.659400 -1.596590 2.278580 6.456720 -0.000001 -0.000000 13.597300 -3.162650 -12.148100 12.994200 -0.242716 4.980390 -91.242900 4.258090 -73.711000 5.348090 -0.000007 -0.000001 -61.222600 35.169800 -14.203600 24.328600 0.000019 0.000005 7.340250 21.763100 -19.158700 22.291600 -0.000001 0.000005 7.300190 5.236910 1.776340 12.994500 -0.242716 -4.980390 90.683200 -2.317470 -73.569100 -5.348130 -0.000001 -0.000004 -59.410800 -42.734500 -84.702900 -24.328900 0.000322 -0.000009 4.175580 1.604230 -69.027200 -22.291500 -0.000108 -0.000004 16.401700 5.392620 -2.699160 -2.192480 -6.469440 -0.000000 -175.020000 -14.956900 4.026880 39.081100 -0.000007 -0.000012 -0.143360 0.232829 31.622300 40.985400 -0.000006 -0.000013 1.975700 4.274060 -73.233500 11.754300 -0.000000 0.000003 -0.000222 -0.002022 -16.653600 -2.192510 6.469440 -0.000001 170.483000 19.958000 -175.809000 -39.081100 -0.002282 -0.040193 -0.165008 0.280472 30.967700 -40.985400 0.000008 0.000006 2.903230 15.844100 -71.907100 -11.754300 -0.000006 -0.000006 -0.002611 -0.036114 -18.041700
0.000000 0.000000 0.000000 0.000000 0.000000 -0.000000 2.547070 90.388400 2.321190 89.167800 -5.794110 12.176100 15.735700 0.000005 -0.000001 92.297400 82.064300 -94.693600 8.984550 -0.406207 -0.000000 8.110540 0.626156 -4.832000 16.377300 -0.000001 -0.000001 27.909700 -1.607740 2.279120 6.456720 -0.000001 -0.000000 13.750500 -3.203060 -12.179800 12.994200 -0.242716 4.980390 -91.224600 4.212430 -73.773700 5.348090 -0.000007 -0.000001 -61.202200 35.080500 -14.139600 24.328600 0.000019 0.000005 7.331020 21.789600 -19.115600 22.291600 -0.000001 0.000005 7.426620 5.239730 1.702630 12.994500 -0.242716 -4.980390 90.704700 -2.388640 -73.556500 -5.348130 -0.000001 -0.000004 -59.514900 -42.658000 -84.702000 -24.328900 0.000322 -0.000009 4.327560 1.662580 -69.030200 -22.291500 -0.000108 -0.000004 16.294600 5.389030 -2.584460 -2.192480 -6.469440 -0.000000 -175.072000 -14.948400 4.020860 39.081100 -0.000007 -0.000012 -0.140694 0.228799 31.588700 40.985400 -0.000006 -0.000013 2.019250 4.218290 -73.259500 11.754300 -0.000000 0.000003 -0.000236 -0.002128 -16.657400 -2.192510 6.469440 -0.000001 170.465000 20.007300 -175.809000 -39.081100 -0.002282 -0.040193 -0.156218 0.266326 30.920000 -40.985400 0.000008 0.000006 2.952410 15.861300 -71.914000 -11.754300 -0.000006 -0.000006 -0.002661 -0.036708 -18.065900
0.000000 0.000000 0.000000 0.000000 0.000000 -0.000000 2.627130 90.385300 2.354460 89.126200 -5.816410 12.101000 15.735700 0.000005 -0.000001 92.383900 82.110800 -94.776300 8.984550 -0.406207 -0.000000 8.017220 0.648151 -4.825490 16.377300 -0.000001 -0.000001 28.079400 -1.622330 2.294250 6.456720 -0.000001 -0.000000 13.899100 -3.221240 -12.318300 12.994200 -0.242716 4.980390 -91.207000 4.163970 -73.818900 5.348090 -0.000007 -0.000001 -61.232300 34.999700 -14.058700 24.328600 0.000019 0.000005 7.335930 21.808400 -19.113000 22.291600 -0.000001 0.000005 7.410470 5.239550 1.707440 12.994500 -0.242716 -4.980390 90.729200 -2.470520 -73.550300 -5.348130 -0.000001 -0.000004 -59.568200 -42.577600 -84.720400 -24.328900 0.000322 -0.000009 4.343270 1.672640 -68.984300 -22.291500 -0.000108 -0.000004 16.297300 5.389950 -2.613810 -2.192480 -6.469440 -0.000000 -175.121000 -14.899900 3.943750 39.081100 -0.000007 -0.000012 -0.140406 0.228116 31.612700 40.985400 -0.000006 -0.000013 2.052780 4.145440 -73.295600 11.754300 -0.000000 0.000003 -0.000245 -0.002196 -16.659900 -2.192510 6.469440 -0.000001 170.458000 20.040600 -175.846000 -39.081100 -0.002282 -0.040193 -0.153124 0.261529 30.884400 -40.985400 0.000008 0.000006 2.937110 15.921500 -71.904000 -11.754300 -0.000006 -0.000006 -0.002762 -0.037883 -18.113700
